<svg xmlns="http://www.w3.org/2000/svg" width="22" height="22" xmlns:v="https://vecta.io/nano"><style><![CDATA[.B{filter:url(#A)}.C{color-interpolation-filters:sRGB}]]></style><defs><filter id="A" x="0" y="0" width="1" height="1" class="C"><feColorMatrix values="1.037 0 0 0.0376845 -0.0185 0 1.037 0 0.0376845 -0.0185 0 0 1.037 0.0376845 -0.0185 0 0 0 1 0" result="A"/><feColorMatrix values="0 0 0 -1 0 0 0 0 -1 0 0 0 0 -1 0 0 0 0 1 0"/><feColorMatrix values="1.097 0 0 0.0387945 -0.0485 0 1.097 0 0.0387945 -0.0485 0 0 1.097 0.0387945 -0.0485 0 0 0 1 0" in="A" result="A"/><feColorMatrix values="0 0 0 -1 0 0 0 0 -1 0 0 0 0 -1 0 0 0 0 1 0"/><feColorMatrix values="1.097 0 0 0.0387945 -0.0485 0 1.097 0 0.0387945 -0.0485 0 0 1.097 0.0387945 -0.0485 0 0 0 1 0" in="A" result="A"/><feColorMatrix values="0 0 0 -1 0 0 0 0 -1 0 0 0 0 -1 0 0 0 0 1 0"/><feColorMatrix values="1.097 0 0 0.0387945 -0.0485 0 1.097 0 0.0387945 -0.0485 0 0 1.097 0.0387945 -0.0485 0 0 0 1 0" in="A" result="A"/><feColorMatrix values="0 0 0 -1 0 0 0 0 -1 0 0 0 0 -1 0 0 0 0 1 0"/><feColorMatrix values="1.06 0 0 0.03811 -0.03 0 1.06 0 0.03811 -0.03 0 0 1.06 0.03811 -0.03 0 0 0 1 0" in="A" result="A"/><feColorMatrix values="0 0 0 -1 0 0 0 0 -1 0 0 0 0 -1 0 0 0 0 1 0"/><feColorMatrix values="1.06 0 0 0.03811 -0.03 0 1.06 0 0.03811 -0.03 0 0 1.06 0.03811 -0.03 0 0 0 1 0" in="A"/></filter><filter id="B" x="0" y="0" width="1" height="1" class="C"><feColorMatrix values="1.037 0 0 0.0376845 -0.0185 0 1.037 0 0.0376845 -0.0185 0 0 1.037 0.0376845 -0.0185 0 0 0 1 0" result="A"/><feColorMatrix values="0 0 0 -1 0 0 0 0 -1 0 0 0 0 -1 0 0 0 0 1 0"/><feColorMatrix values="1.037 0 0 0.0376845 -0.0185 0 1.037 0 0.0376845 -0.0185 0 0 1.037 0.0376845 -0.0185 0 0 0 1 0" in="A" result="A"/><feColorMatrix values="0 0 0 -1 0 0 0 0 -1 0 0 0 0 -1 0 0 0 0 1 0"/><feColorMatrix values="1.097 0 0 0.0387945 -0.0485 0 1.097 0 0.0387945 -0.0485 0 0 1.097 0.0387945 -0.0485 0 0 0 1 0" in="A" result="A"/><feColorMatrix values="0 0 0 -1 0 0 0 0 -1 0 0 0 0 -1 0 0 0 0 1 0"/><feColorMatrix values="1.06 0 0 0.03811 -0.03 0 1.06 0 0.03811 -0.03 0 0 1.06 0.03811 -0.03 0 0 0 1 0" in="A" result="A"/><feColorMatrix values="0 0 0 -1 0 0 0 0 -1 0 0 0 0 -1 0 0 0 0 1 0"/><feComposite in2="A" operator="arithmetic" k1="0" k2="1" in="A"/><feColorMatrix values="1" type="saturate" result="D"/><feFlood flood-opacity="1" flood-color="#9aa4b1"/><feBlend in2="D" mode="multiply"/><feBlend mode="screen"/><feColorMatrix values="1" type="saturate"/><feComposite in2="A" operator="in" k2="1"/></filter><filter id="C" x="0" y="0" width="1" height="1" class="C"><feColorMatrix values="1.06 0 0 0.03811 -0.03 0 1.06 0 0.03811 -0.03 0 0 1.06 0.03811 -0.03 0 0 0 1 0"/></filter></defs><linearGradient id="D" x2="-239.357" y1="18.002" y2="4.002" gradientUnits="userSpaceOnUse" x1="-239.357"><stop offset="0" stop-color="#2f363a"/><stop offset="1" stop-color="#242424"/></linearGradient><path fill="url(#D)" d="M1 4h20v14H1z" opacity=".99" class="B"/><path fill="#252525" d="M1 17h20v1H1z" class="B"/><g filter="url(#B)"><path fill="#687a7a" d="M2 8v2h1V8zm2 0v2h2V8zm3 0v2h2V8zm3 0v2h2V8zm3 0v2h2V8zm3 0v2h4V8zM2 11v2h2v-2zm3 0v2h2v-2zm3 0v2h2v-2zm3 0v2h2v-2zm3 0v2h2v-2zm3 0v2h3v-2zM2 14v2h3v-2zm4 0v2h8v-2zm9 0v2h2v-2zm3 0v2h2v-2z" class="B"/><path fill="#3a4f4f" d="M2 9v1h1V9zm2 0v1h2V9zm3 0v1h2V9zm3 0v1h2V9zm3 0v1h2V9zm3 0v1h4V9zM2 12v1h2v-1zm3 0v1h2v-1zm3 0v1h2v-1zm3 0v1h2v-1zm3 0v1h2v-1zm3 0v1h3v-1zM2 15v1h3v-1zm4 0v1h8v-1zm9 0v1h2v-1zm3 0v1h2v-1z" class="B"/></g><path fill="#31c281" d="M15 5v1h1V5zm2 0v1h1V5zm2 0v1h1V5z" filter="url(#C)"/></svg>