<svg xmlns="http://www.w3.org/2000/svg" width="32" height="32"><path fill="#50505c" d="M16 1C7.723 1 1 7.723 1 16s6.723 15 15 15 15-6.723 15-15S24.277 1 16 1" opacity=".3" style="fill:#424654;fill-opacity:1;opacity:.80037046"/><path fill="#e3e9fa" d="M20.125 4.5a4.125 4.125 0 1 0 0 8.25 4.125 4.125 0 1 0 0-8.25m0 .917a3.208 3.208 0 1 1 0 6.417 3.208 3.208 0 1 1 0-6.417m-8.25 3.667a4.125 4.125 0 1 0 0 8.252 4.125 4.125 0 0 0 0-8.253zm0 .917a3.208 3.208 0 0 1 0 6.417 3.208 3.208 0 0 1 0-6.417m8.25 3.667a6.5 6.5 0 0 0-2.37.458 6 6 0 0 1-.295 1.139 5.6 5.6 0 0 1 2.666-.68c3.291 0 5.958 2.873 5.958 6.417h-7.647l.426.917H27V21c0-4.05-3.078-7.333-6.875-7.333zm-8.25 4.583C8.078 18.25 5 21.533 5 25.583v.917h13.75v-.917c0-4.05-3.078-7.333-6.875-7.333zm0 .917c3.291 0 5.958 2.873 5.958 6.417H5.917c0-3.544 2.668-6.417 5.958-6.417"/></svg>