<svg xmlns="http://www.w3.org/2000/svg" width="32" height="32" xmlns:v="https://vecta.io/nano"><style><![CDATA[.B{filter:url(#K)}.C{fill-rule:evenodd}]]></style><defs><linearGradient href="#B" id="A" y1="29.971" y2="2.971" x2="0" x1="0"/><linearGradient id="B" href="#L"><stop stop-color="#18222a"/><stop offset="1" stop-color="#566069"/></linearGradient><linearGradient id="C" x1="7" x2="9" y1="-.029" y2="-.029" href="#L"><stop stop-color="#283845"/><stop offset="1" stop-color="#4e575f"/></linearGradient><linearGradient id="D" x1="24" x2="25" y1="-.029" y2="-.029" href="#L"><stop stop-color="#253440"/><stop offset="1" stop-color="#566069" stop-opacity=".463"/></linearGradient><linearGradient id="E" y1="17.971" x1="11" y2="23.971" x2="9" href="#L"><stop stop-color="#18222a"/><stop offset="1" stop-color="#566069" stop-opacity=".463"/></linearGradient><linearGradient href="#G" id="F" y1="13.971" y2="11.971" x2="0" x1="0"/><linearGradient id="G" href="#L"><stop stop-color="#197cf1"/><stop offset="1" stop-color="#21c9fb"/></linearGradient><linearGradient href="#G" id="H" y1="11.971" y2="9.971" x2="-384.571" x1="-384.571"/><linearGradient href="#B" id="I" y1="8.971" y2="4.971" x2="-384.571" x1="-384.571"/><linearGradient href="#G" id="J" y1="15.971" y2="6.971" x2="0" x1="0"/><filter id="K" x="0" y="0" width="1" height="1" color-interpolation-filters="sRGB"><feColorMatrix values="2.3775 0 0 0.312884 -0.688752 0 2.3775 0 0.312884 -0.688752 0 0 2.3775 0.312884 -0.688752 0 0 0 1 0"/></filter><linearGradient id="L" gradientUnits="userSpaceOnUse"/></defs><g class="C"><path d="M16 2.971l-7 2c-.944 3.339-1.283 5.87-.828 9.703l-.141.58L8 14.971v.412l-.305 1.273C7.401 17.311 7 18.276 7 18.971c0 .752.14 1.314.566 2.639.105.453.236.907.434 1.361.25 2.023.557 2.537 1.734 3.984 2.496 1.435 3.9 2.514 6.266 3.016 2.083-.362 4.177-1.674 5.459-3.021l.541.021c1.045-1.118 1.738-2.645 2-4 1-4 1-3 1-4 0-.532-.266-1.834-.531-3.01-.155-1.023-.386-2.062-.68-3.199l.012-1.791.166-.201c-.011-1.318-.12-2.021-.361-3.084l-.131-.428-.354-.197c-.121-.954-.357-1.896-.922-2.689-2.36.094-4.714-1.282-6.199-1.4z" fill="url(#A)" class="B"/><path d="M10 22.971l.6-.7.3-.35.15-.175c.205-.263.172-.4.172-.625l-.032-.965-.042-.795-.06-.702c-.068-.764-.216-1.116-.437-1.22l-.35-.158-.35-.158-.35-.158c.241 1.938.367 3.945.4 6.007z" opacity=".6" fill="#1a1a1a" class="B"/><path d="M8.147 14.42l.025.254-.141.58L8 14.971v.412l-.305 1.273C7.401 17.311 7 18.276 7 18.971c0 .752.14 1.314.566 2.639.105.453.236.907.434 1.361l.113.68c1.553-4.238.389-8.195.033-9.23z" fill="url(#C)" class="B"/><path d="M23.913 13.28l-.807 12.105c.428-.79.742-1.627.895-2.414 1-4 1-3 1-4 0-.532-.266-1.834-.531-3.01-.13-.862-.326-1.748-.557-2.682z" fill="url(#D)" class="B"/><path d="M9 17.971l-.133.396c.079 1.551-.057 3.38-.754 5.283L8 22.971c.227 1.835.534 2.457 1.461 3.631.489-2.65.343-8.09-.461-8.631z" fill="url(#E)" class="B"/></g><path d="M16 2.971l-.25.072v12.678a.25.25 0 1 0 .5 0V3.012L16 2.971z" fill="#1b252d" fill-opacity=".384" class="B"/><g class="C"><path d="M14.8 12.471v1l1.2.5 1.2-.5v-1l-1.2.5z" fill="url(#F)" class="B"/><path d="M14.8 11.471v-1l1.2-.5 1.2.5v1l-1.2-.5z" fill="url(#H)" class="B"/></g><rect width="2" x="15" y="5.071" rx=".25" height="4" fill="url(#I)" class="B"/><path d="M23.098 6.922L23 6.971c.42.84.658 2.562.799 4.277l.002-.277.166-.201c-.011-1.318-.12-2.021-.361-3.084l-.131-.428-.354-.197-.023-.139zm.822 6.389l.08 2.66.258-1.156-.338-1.504z" fill="url(#J)" class="B C"/><path d="M15 22.971a.25.25 0 1 0 0 .5.25.25 0 1 0 0-.5zm1.75 0l-.5.5.75.75-.25.25-.25.25-.25.25.5.5.25-.25.25-.25.25-.25.5-.5zm-2.375 1.5c-.208 0-.375.167-.375.375s.167.375.375.375.375-.167.375-.375-.167-.375-.375-.375zm1.125 1.5a.5.5 0 1 0 0 1 .5.5 0 1 0 0-1z" fill="#83878a" opacity=".687" class="B"/></svg>