<svg xmlns="http://www.w3.org/2000/svg" width="32" height="32" xmlns:v="https://vecta.io/nano"><style><![CDATA[.B{filter:url(#B)}.C{color-interpolation-filters:sRGB}]]></style><defs><linearGradient id="A" x2="-384.571" y1="25" y2="7" x1="-384.571" gradientUnits="userSpaceOnUse"><stop stop-color="#c6cdd1"/><stop offset="1" stop-color="#e0e5e7"/></linearGradient><filter id="B" x="0" y="0" width="1" height="1" class="C"><feColorMatrix type="hueRotate" values="180"/><feColorMatrix values="-1 0 0 0 1 0 -1 0 0 1 0 0 -1 0 1 -0.21 -0.72 -0.07 2 0 " result="A"/><feColorMatrix values="0 0 0 -1 0 0 0 0 -1 0 0 0 0 -1 0 0 0 0 1 0"/><feColorMatrix values="1.03641 0 0 0.0205557 -0.0182061 0 1.03641 0 0.0205557 -0.0182061 0 0 1.03641 0.0205557 -0.0182061 0 0 0 1 0" in="A" result="A"/><feColorMatrix values="0 0 0 -1 0 0 0 0 -1 0 0 0 0 -1 0 0 0 0 1 0"/><feColorMatrix values="1.03641 0 0 0.0205557 -0.0182061 0 1.03641 0 0.0205557 -0.0182061 0 0 1.03641 0.0205557 -0.0182061 0 0 0 1 0" in="A" result="A"/><feColorMatrix values="0 0 0 -1 0 0 0 0 -1 0 0 0 0 -1 0 0 0 0 1 0"/><feColorMatrix values="1.03641 0 0 0.0205557 -0.0182061 0 1.03641 0 0.0205557 -0.0182061 0 0 1.03641 0.0205557 -0.0182061 0 0 0 1 0" in="A" result="A"/><feColorMatrix values="0 0 0 -1 0 0 0 0 -1 0 0 0 0 -1 0 0 0 0 1 0"/><feColorMatrix values="1.03641 0 0 0.0205557 -0.0182061 0 1.03641 0 0.0205557 -0.0182061 0 0 1.03641 0.0205557 -0.0182061 0 0 0 1 0" in="A" result="A"/><feColorMatrix values="0 0 0 -1 0 0 0 0 -1 0 0 0 0 -1 0 0 0 0 1 0"/><feColorMatrix values="1.03641 0 0 0.0205557 -0.0182061 0 1.03641 0 0.0205557 -0.0182061 0 0 1.03641 0.0205557 -0.0182061 0 0 0 1 0" in="A"/></filter><filter id="C" x="0" y="0" width="1" height="1" class="C"><feColorMatrix values="1.04 0 0 0.06936 -0.02 0 1.04 0 0.06936 -0.02 0 0 1.04 0.06936 -0.02 0 0 0 1 0"/></filter><filter id="D" x="0" y="0" width="1" height="1" class="C"><feComposite in2="SourceGraphic" operator="arithmetic" k1="0" k2="1"/><feColorMatrix values="1" type="saturate" result="B"/><feFlood flood-opacity="1" flood-color="#9aa4b1"/><feBlend in2="B" mode="multiply"/><feBlend mode="screen"/><feColorMatrix values="1" type="saturate"/><feComposite in2="SourceGraphic" operator="in" k2="1"/></filter></defs><g filter="url(#C)"><path d="M0 7h32v18H0z" opacity=".99" fill="url(#A)" class="B"/><path d="M0 24h32v1H0z" fill="#e1e4e6" class="B"/></g><path d="M30 8h1v1h-1zm-3 0h1v1h-1zm-3 0h1v1h-1z" fill="#31c281" class="B"/><g filter="url(#D)"><path d="M1 12v3h3v-3zm4 0v3h3v-3zm4 0v3h3v-3zm4 0v3h3v-3zm4 0v3h3v-3zm4 0v3h3v-3zm4 0v3h6v-3zM1 16v3h5v-3zm6 0v3h3v-3zm4 0v3h3v-3zm4 0v3h3v-3zm4 0v3h3v-3zm4 0v3h3v-3zm4 0v3h4v-3zM1 20v3h3v-3zm4 0v3h3v-3zm4 0v3h10v-3zm11 1v2h3v-2zm4-1v3h3v-3zm4 1v2h3v-2z" fill="#536161" class="B"/><path d="M1 14v1h3v-1zm4 0v1h3v-1zm4 0v1h3v-1zm4 0v1h3v-1zm4 0v1h3v-1zm4 0v1h3v-1zm4 0v1h6v-1zM1 18v1h5v-1zm6 0v1h3v-1zm4 0v1h3v-1zm4 0v1h3v-1zm4 0v1h3v-1zm4 0v1h3v-1zm4 0v1h4v-1zM1 22v1h3v-1zm4 0v1h3v-1zm4 0v1h10v-1zm11 0v1h3v-1zm4 0v1h3v-1zm4 0v1h3v-1z" fill="#859898" class="B"/></g></svg>