<svg xmlns="http://www.w3.org/2000/svg" width="64" height="64"><defs><linearGradient id="j" x1="16.323" x2="16" y1="33.616" y2="20.202" href="#a" spreadMethod="pad"><stop offset="0" stop-color="#a9a9a9"/><stop offset="1" stop-color="#fff"/></linearGradient><linearGradient id="k" x1="33.293" x2="33.293" y1="36.525" y2="41.051" href="#b" spreadMethod="pad"><stop offset="0" stop-color="#c1c1c1"/><stop offset="1" stop-color="#fff"/></linearGradient><linearGradient id="e" x1="31.541" x2="31.541" y1="38.855" y2="15.999" href="#a" spreadMethod="pad"><stop offset="0" stop-color="#404f8e"/><stop offset="1" stop-color="#293983"/></linearGradient><linearGradient id="b" href="#a"/><linearGradient id="h" x1="37.712" x2="37.712" y1="34.769" y2="43.883" href="#a" spreadMethod="pad"><stop offset="0" stop-color="#6e7bb3"/><stop offset="1" stop-color="#293983"/></linearGradient><linearGradient id="g" x1="400.794" x2="400.794" y1="524.606" y2="533.859" href="#a" spreadMethod="pad"><stop offset="0" stop-color="#607999"/><stop offset="1" stop-color="#2a387c"/></linearGradient><linearGradient id="a" gradientUnits="userSpaceOnUse"/><filter id="d" width="1" height="1" x="0" y="0" color-interpolation-filters="sRGB"><feColorMatrix result="A" values="1.04 0 0 0.06936 -0.02 0 1.04 0 0.06936 -0.02 0 0 1.04 0.06936 -0.02 0 0 0 1 0"/><feColorMatrix values="0 0 0 -1 0 0 0 0 -1 0 0 0 0 -1 0 0 0 0 1 0"/><feColorMatrix in="A" values="0.998 0 0 0.067932 0.001 0 0.998 0 0.067932 0.001 0 0 0.998 0.067932 0.001 0 0 0 1 0"/></filter><filter id="f" width="1" height="1" x="0" y="0" color-interpolation-filters="sRGB"><feColorMatrix values="1.04 0 0 0.06936 -0.02 0 1.04 0 0.06936 -0.02 0 0 1.04 0.06936 -0.02 0 0 0 1 0"/></filter><radialGradient id="c" cx="31.915" cy="46.773" r="28.18" fx="31.915" fy="46.773" gradientTransform="matrix(1.82006 0 0 .30057 -26.256 30.43)" gradientUnits="userSpaceOnUse" href="#b" spreadMethod="pad"><stop offset="0" stop-color="#4a5278"/><stop offset="1" stop-color="#0b1a61"/></radialGradient><path id="i" d="M408.074 525.662a1.21 1.21 0 0 0-1.208 1.208 1.21 1.21 0 0 0 1.208 1.208 1.21 1.21 0 0 0 1.208-1.208 1.21 1.21 0 0 0-1.208-1.208"/></defs><path fill="url(#c)" d="m5.031 26.978-1.01 18.184q-.139.566-.142 1.146a4.833 4.833 0 0 0 4.832 4.832 4.84 4.84 0 0 0 3.714-1.746l.004.008 11.932-15.178zm54.056 0-19.33 7.248 11.932 15.178.004-.008a4.84 4.84 0 0 0 3.714 1.746 4.833 4.833 0 0 0 4.832-4.832 4.8 4.8 0 0 0-.142-1.146z" filter="url(#d)"/><path fill="url(#e)" d="M19.529 14.896C11.683 13.302 5.031 18.97 5.031 26.978A14.5 14.5 0 0 0 27.529 39.06h9.062a14.5 14.5 0 0 0 22.496-12.082c0-8.006-6.606-13.432-14.498-12.082l-10.174 2.066h-4.714z" filter="url(#f)"/><path fill="url(#g)" d="M393.215 524.643a4.615 4.615 0 1 0-.199 9.231 4.615 4.615 0 0 0 .199-9.231m14.946 0a4.615 4.615 0 1 0-.199 9.231 4.615 4.615 0 0 0 .199-9.231" filter="url(#f)" transform="matrix(2 0 0 2 -769.143 -1031.596)"/><path fill="url(#h)" d="M25.705 34.226a4.833 4.833 0 1 0 .002 9.666 4.833 4.833 0 0 0-.002-9.666m12.708 0a4.833 4.833 0 1 0 .002 9.666 4.833 4.833 0 0 0-.002-9.666" filter="url(#f)"/><use fill="#00b4ff" href="#i" transform="rotate(135 643.215 383.504)scale(2)"/><g transform="matrix(2 0 0 2 -769.143 -1031.596)"><use x="-2.416" y="2.416" fill="#ff009e" href="#i"/><use x="2.417" y="2.416" fill="red" href="#i"/></g><use y="4.833" fill="#00e400" href="#i" transform="matrix(2 0 0 2 -769.143 -1041.253)"/><path fill="url(#j)" d="M14.697 19.728v4.832H9.865v4.832h4.832v4.832h4.832v-4.832h4.832V24.56h-4.832v-4.832z"/><path fill="url(#k)" d="M25.705 36.642a2.42 2.42 0 0 0-2.416 2.416 2.42 2.42 0 0 0 2.416 2.416 2.42 2.42 0 0 0 2.416-2.416 2.42 2.42 0 0 0-2.416-2.416m12.708 0a2.42 2.42 0 0 0-2.416 2.416 2.42 2.42 0 0 0 2.416 2.416 2.42 2.42 0 0 0 2.416-2.416 2.42 2.42 0 0 0-2.416-2.416"/></svg>