<?xml version="1.0" encoding="UTF-8" standalone="no"?>
<svg
   width="32"
   height="32"
   version="1.1"
   id="svg1"
   sodipodi:docname="xsi-lock-screen-symbolic.svg"
   inkscape:version="1.4.3 (0d15f75042, 2025-12-25)"
   xmlns:inkscape="http://www.inkscape.org/namespaces/inkscape"
   xmlns:sodipodi="http://sodipodi.sourceforge.net/DTD/sodipodi-0.dtd"
   xmlns="http://www.w3.org/2000/svg"
   xmlns:svg="http://www.w3.org/2000/svg">
  <defs
     id="defs1" />
  <sodipodi:namedview
     id="namedview1"
     pagecolor="#505050"
     bordercolor="#ffffff"
     borderopacity="1"
     inkscape:showpageshadow="0"
     inkscape:pageopacity="0"
     inkscape:pagecheckerboard="1"
     inkscape:deskcolor="#505050"
     inkscape:zoom="16"
     inkscape:cx="24.15625"
     inkscape:cy="19.5625"
     inkscape:window-width="1920"
     inkscape:window-height="998"
     inkscape:window-x="0"
     inkscape:window-y="0"
     inkscape:window-maximized="1"
     inkscape:current-layer="svg1" />
  <path
     fill="#d6dbf1"
     fill-rule="evenodd"
     d="M 16.000488,0.4363107 C 11.411064,0.42439028 7.6876036,4.1478502 7.6995242,8.7372745 v 6.2254775 c -2.2944428,-0.006 -4.1559544,1.855552 -4.1499936,4.149995 v 8.300965 c -0.00596,2.294442 1.8555517,4.155952 4.1499936,4.149991 H 24.300475 c 2.294443,0.006 4.155954,-1.855549 4.149994,-4.149991 v -8.300965 c 0.006,-2.294443 -1.85555,-4.155955 -4.149994,-4.149995 V 8.7372745 C 24.312396,4.1482326 20.589529,0.42493193 16.000488,0.4363107 m 0.05455,3.0218208 c 3.094876,0 5.586194,2.5176432 5.586194,5.6452219 V 14.748575 H 10.46884 V 9.1033534 c 0,-3.1275787 2.491318,-5.6452219 5.58619,-5.6452219"
     paint-order="fill markers stroke"
     id="path1"
     style="stroke-width:0.976241"
     sodipodi:nodetypes="cccccccccccccsccsc" />
</svg>
